<svg width="46" height="44" viewBox="0 0 46 44" fill="none" xmlns="http://www.w3.org/2000/svg">
<path fill-rule="evenodd" clip-rule="evenodd" d="M10.8302 0C14.4773 0 17.434 2.95661 17.434 6.60378V7.96227C17.434 10.8592 19.7824 13.2075 22.6792 13.2075C25.5761 13.2075 27.9245 10.8592 27.9245 7.96227V6.60377C27.9245 2.95661 30.8811 0 34.5283 0H36.6415C41.4558 0 45.3585 3.90272 45.3585 8.71698V35.1359C45.3585 40.0314 41.3899 44 36.4944 44H8.86407C3.96858 44 0 40.0314 0 35.1359V8.71698C0 3.90272 3.90272 0 8.71698 0H10.8302ZM8.98113 5.81132C10.9658 5.81132 12.6038 7.42021 12.6038 9.40486V27.3499C12.6038 29.3345 14.2127 30.9434 16.1973 30.9434H22.8216C24.8062 30.9434 26.4151 32.5814 26.4151 34.566C26.4151 36.5507 24.8062 38.1887 22.8216 38.1887H8.95203C6.96738 38.1887 5.35849 36.5798 5.35849 34.5951V9.40486C5.35849 7.4202 6.99647 5.81132 8.98113 5.81132ZM36.1509 5.81132C38.1356 5.81132 39.7736 7.42021 39.7736 9.40486V34.5951C39.7736 36.5798 38.1356 38.1887 36.1509 38.1887C34.1663 38.1887 32.5283 36.5798 32.5283 34.5951V29.1785C32.5283 27.1938 30.9194 25.5849 28.9348 25.5849L22.3105 25.5849C20.3259 25.5849 18.717 23.9469 18.717 21.9623C18.717 19.9776 20.3259 18.3396 22.3105 18.3396L28.9348 18.3396C30.9194 18.3396 32.5283 16.7307 32.5283 14.7461V9.40486C32.5283 7.4202 34.1663 5.81132 36.1509 5.81132Z" fill="white"/>
</svg>
